<svg width="800" height="800" viewBox="0 0 800 800" xmlns="http://www.w3.org/2000/svg" text-rendering="geometricPrecision" shape-rendering="geometricPrecision">
  
  <!-- Transparent baggrund - ingen rect -->
  
  <!-- ========== DE 5 LOTUS-BLADE ========== -->
  <!-- Originalt center var 400,430 i 800x850 canvas.
       I 800x800 canvas: blomsten skal centreres vertikalt.
       Original blomst spænder ca. y=140 til y=720 = 580px høj, center ~430.
       I 800x800: center skal være 400. Offset = 400-430 = -30.
       Alle y-koordinater forskydes med -30, transform translateY(-30) -->
  
  <g transform="translate(0, -30)">
  
  <!-- Blad 1 - 0° (op) -->
  <path d="M400,490 
           C300,460 260,380 280,300 
           C300,220 360,160 400,140 
           C440,160 500,220 520,300 
           C540,380 500,460 400,490 Z" 
        fill="#6B73A0" fill-opacity="0.55" 
        stroke="none"
        transform="rotate(0, 400, 430)"/>
  
  <!-- Blad 2 - 72° -->
  <path d="M400,490 
           C300,460 260,380 280,300 
           C300,220 360,160 400,140 
           C440,160 500,220 520,300 
           C540,380 500,460 400,490 Z" 
        fill="#757DA5" fill-opacity="0.55" 
        stroke="none"
        transform="rotate(72, 400, 430)"/>
  
  <!-- Blad 3 - 144° -->
  <path d="M400,490 
           C300,460 260,380 280,300 
           C300,220 360,160 400,140 
           C440,160 500,220 520,300 
           C540,380 500,460 400,490 Z" 
        fill="#858DB5" fill-opacity="0.55" 
        stroke="none"
        transform="rotate(144, 400, 430)"/>
  
  <!-- Blad 4 - 216° -->
  <path d="M400,490 
           C300,460 260,380 280,300 
           C300,220 360,160 400,140 
           C440,160 500,220 520,300 
           C540,380 500,460 400,490 Z" 
        fill="#959DC5" fill-opacity="0.55" 
        stroke="none"
        transform="rotate(216, 400, 430)"/>
  
  <!-- Blad 5 - 288° -->
  <path d="M400,490 
           C300,460 260,380 280,300 
           C300,220 360,160 400,140 
           C440,160 500,220 520,300 
           C540,380 500,460 400,490 Z" 
        fill="#959DC5" fill-opacity="0.65" 
        stroke="none"
        transform="rotate(288, 400, 430)"/>
  
  <!-- ════════════════════════════ -->
  <!-- 5 YDRE BLADE LABELS -->
  <!-- ════════════════════════════ -->
  
  <text x="400" y="240" text-anchor="middle" font-family="Georgia, serif" font-size="11" font-weight="bold" fill="#2a4a4f">LIVETS BUE</text>
  <text x="400" y="254" text-anchor="middle" font-family="Georgia, serif" font-size="9" fill="#3a5a5f">9 faser · 63 år</text>
  
  <text x="603" y="356" text-anchor="middle" font-family="Georgia, serif" font-size="11" font-weight="bold" fill="#2a4a4f">ÅRETS RYTME</text>
  <text x="603" y="370" text-anchor="middle" font-family="Georgia, serif" font-size="9" fill="#3a5a5f">5 sæsoner</text>
  
  <text x="516" y="589" text-anchor="middle" font-family="Georgia, serif" font-size="11" font-weight="bold" fill="#2a4a4f">MÅNEDENS</text>
  <text x="516" y="603" text-anchor="middle" font-family="Georgia, serif" font-size="11" font-weight="bold" fill="#2a4a4f">CYKLUS</text>
  <text x="516" y="617" text-anchor="middle" font-family="Georgia, serif" font-size="9" fill="#3a5a5f">4 uger · 28 dage</text>
  
  <text x="279" y="589" text-anchor="middle" font-family="Georgia, serif" font-size="11" font-weight="bold" fill="#2a4a4f">UGENS</text>
  <text x="279" y="603" text-anchor="middle" font-family="Georgia, serif" font-size="11" font-weight="bold" fill="#2a4a4f">RYTME</text>
  <text x="279" y="617" text-anchor="middle" font-family="Georgia, serif" font-size="9" fill="#3a5a5f">7 dage</text>
  
  <text x="197" y="356" text-anchor="middle" font-family="Georgia, serif" font-size="11" font-weight="bold" fill="#2a4a4f">DØGNETS PULS</text>
  <text x="197" y="370" text-anchor="middle" font-family="Georgia, serif" font-size="9" fill="#3a5a5f">24 timer</text>
  
  <!-- ════════════════════════════ -->
  <!-- 5 TO-OVERLAP -->
  <!-- ════════════════════════════ -->
  
  <text x="474" y="316" text-anchor="middle" font-family="Georgia, serif" font-size="9" fill="#1a3a3f">ildens år</text>
  <text x="474" y="328" text-anchor="middle" font-family="Georgia, serif" font-size="9" fill="#1a3a3f">møder</text>
  <text x="474" y="340" text-anchor="middle" font-family="Georgia, serif" font-size="9" fill="#1a3a3f">sommerens kraft</text>
  
  <text x="522" y="459" text-anchor="middle" font-family="Georgia, serif" font-size="9" fill="#1a3a3f">vinter ude</text>
  <text x="522" y="471" text-anchor="middle" font-family="Georgia, serif" font-size="9" fill="#1a3a3f">menstruation inde</text>
  <text x="522" y="483" text-anchor="middle" font-family="Georgia, serif" font-size="9" fill="#1a3a3f">dobbelt vand</text>
  
  <text x="400" y="550" text-anchor="middle" font-family="Georgia, serif" font-size="9" fill="#1a3a3f">mandag i</text>
  <text x="400" y="562" text-anchor="middle" font-family="Georgia, serif" font-size="9" fill="#1a3a3f">menstruationen</text>
  <text x="400" y="574" text-anchor="middle" font-family="Georgia, serif" font-size="9" fill="#1a3a3f">kræver hvile</text>
  
  <text x="273" y="459" text-anchor="middle" font-family="Georgia, serif" font-size="9" fill="#1a3a3f">morgen</text>
  <text x="273" y="471" text-anchor="middle" font-family="Georgia, serif" font-size="9" fill="#1a3a3f">på mandag</text>
  <text x="273" y="483" text-anchor="middle" font-family="Georgia, serif" font-size="9" fill="#1a3a3f">stille start</text>
  
  <text x="321" y="316" text-anchor="middle" font-family="Georgia, serif" font-size="9" fill="#1a3a3f">søvnens behov</text>
  <text x="321" y="328" text-anchor="middle" font-family="Georgia, serif" font-size="9" fill="#1a3a3f">ændres</text>
  <text x="321" y="340" text-anchor="middle" font-family="Georgia, serif" font-size="9" fill="#1a3a3f">gennem livet</text>
  
  <!-- ════════════════════════════ -->
  <!-- 5 TRE-OVERLAP -->
  <!-- ════════════════════════════ -->
  
  <text x="400" y="345" text-anchor="middle" font-family="Georgia, serif" font-size="9" font-style="italic" fill="#0a2a2f">de store</text>
  <text x="400" y="357" text-anchor="middle" font-family="Georgia, serif" font-size="9" font-style="italic" fill="#0a2a2f">bølger</text>
  
  <text x="482" y="402" text-anchor="middle" font-family="Georgia, serif" font-size="9" font-style="italic" fill="#0a2a2f">fertiliteten</text>
  <text x="482" y="414" text-anchor="middle" font-family="Georgia, serif" font-size="9" font-style="italic" fill="#0a2a2f">blomstrer</text>
  
  <text x="446" y="496" text-anchor="middle" font-family="Georgia, serif" font-size="9" font-style="italic" fill="#0a2a2f">tre rytmer</text>
  <text x="446" y="508" text-anchor="middle" font-family="Georgia, serif" font-size="9" font-style="italic" fill="#0a2a2f">i samklang</text>
  
  <text x="358" y="496" text-anchor="middle" font-family="Georgia, serif" font-size="9" font-style="italic" fill="#0a2a2f">kroppens</text>
  <text x="358" y="508" text-anchor="middle" font-family="Georgia, serif" font-size="9" font-style="italic" fill="#0a2a2f">hverdagsrytme</text>
  
  <text x="319" y="402" text-anchor="middle" font-family="Georgia, serif" font-size="9" font-style="italic" fill="#0a2a2f">livets</text>
  <text x="319" y="414" text-anchor="middle" font-family="Georgia, serif" font-size="9" font-style="italic" fill="#0a2a2f">dagligdag</text>
  
  <!-- ════════════════════════════ -->
  <!-- CENTRUM -->
  <!-- ════════════════════════════ -->
  
  <text x="400" y="426" text-anchor="middle" font-family="Georgia, serif" font-size="12" font-weight="bold" fill="#0a1a1f">DIG</text>
  <text x="400" y="440" text-anchor="middle" font-family="Georgia, serif" font-size="9" fill="#1a2a2f">i alle rytmer</text>
  
  </g>
  
</svg>
