<svg width="800" height="800" xmlns="http://www.w3.org/2000/svg">
  
  <defs>
    <path id="ildPath" d="M 260.0 157.5 A 280 280 0 0 1 540.0 157.5"/>
    <path id="jordPath" d="M 587.4 191.9 A 280 280 0 0 1 673.9 458.2"/>
    <path id="metalPath" d="M 655.8 513.9 A 280 280 0 0 1 429.3 678.5"/>
    <path id="vandPath" d="M 370.7 678.5 A 280 280 0 0 1 144.2 513.9"/>
    <path id="træPath" d="M 126.1 458.2 A 280 280 0 0 1 212.6 191.9"/>
    
    <path id="innerText1" d="M 396.2 615.0 A 215 215 0 0 1 196.7 470.0"/>
    <path id="innerText2" d="M 276.7 223.9 A 215 215 0 0 1 523.3 223.9"/>
    <path id="innerText3" d="M 603.3 470.0 A 215 215 0 0 1 403.8 615.0"/>
    <path id="innerText4" d="M 194.4 462.9 A 215 215 0 0 1 270.6 228.3"/>
    <path id="innerText5" d="M 529.4 228.3 A 215 215 0 0 1 605.6 462.9"/>
    
    <marker id="arrowhead" markerWidth="8" markerHeight="8" refX="7" refY="4" orient="auto">
      <polygon points="0 0, 8 4, 0 8" fill="#000000"/>
    </marker>
  </defs>
  
  <rect width="800" height="800" fill="#8B7D9B"/>
  
  <!-- Title -->
  <text x="400" y="50" font-family="Times New Roman, serif" font-size="24" font-weight="bold" text-anchor="middle" fill="black">KONTROLCYKLUS (KE)</text>
  
  <!-- Main circle -->
  <circle cx="400" cy="400" r="265" fill="none" stroke="#000000" stroke-width="2"/>
  
  <!-- STAR ARROWS -->
  <line x1="282.4" y1="561.8" x2="400.0" y2="200.0"
        stroke="#000000" stroke-width="1.5" stroke-dasharray="5,5" marker-end="url(#arrowhead)"/>
  <line x1="400.0" y1="200.0" x2="517.6" y2="561.8"
        stroke="#000000" stroke-width="1.5" stroke-dasharray="5,5" marker-end="url(#arrowhead)"/>
  <line x1="517.6" y1="561.8" x2="209.8" y2="338.2"
        stroke="#000000" stroke-width="1.5" stroke-dasharray="5,5" marker-end="url(#arrowhead)"/>
  <line x1="209.8" y1="338.2" x2="590.2" y2="338.2"
        stroke="#000000" stroke-width="1.5" stroke-dasharray="5,5" marker-end="url(#arrowhead)"/>
  <line x1="590.2" y1="338.2" x2="282.4" y2="561.8"
        stroke="#000000" stroke-width="1.5" stroke-dasharray="5,5" marker-end="url(#arrowhead)"/>
  
  <!-- Center text -->
  <text x="400" y="395" font-family="Times New Roman, serif" font-size="16" font-weight="bold" text-anchor="middle" fill="black">Kontrollerende</text>
  <text x="400" y="415" font-family="Times New Roman, serif" font-size="16" font-weight="bold" text-anchor="middle" fill="black">Cyklus</text>
  
  <!-- OUTER ARROWS -->
  <path d="M 520.7 186.8 A 245 245 0 0 1 565.5 219.3"
        fill="none" stroke="#000000" stroke-width="1.5" marker-end="url(#arrowhead)"/>
  <path d="M 640.1 448.9 A 245 245 0 0 1 623.0 501.5"
        fill="none" stroke="#000000" stroke-width="1.5" marker-end="url(#arrowhead)"/>
  <path d="M 427.6 643.4 A 245 245 0 0 1 372.4 643.4"
        fill="none" stroke="#000000" stroke-width="1.5" marker-end="url(#arrowhead)"/>
  <path d="M 177.0 501.5 A 245 245 0 0 1 159.9 448.9"
        fill="none" stroke="#000000" stroke-width="1.5" marker-end="url(#arrowhead)"/>
  <path d="M 234.5 219.3 A 245 245 0 0 1 279.3 186.8"
        fill="none" stroke="#000000" stroke-width="1.5" marker-end="url(#arrowhead)"/>
  
  <!-- Element labels -->
  <text font-family="Times New Roman, serif" font-size="20" font-weight="bold" fill="black" text-anchor="middle">
    <textPath href="#ildPath" startOffset="50%">ILD 火</textPath>
  </text>
  <text font-family="Times New Roman, serif" font-size="20" font-weight="bold" fill="black" text-anchor="middle">
    <textPath href="#jordPath" startOffset="50%">JORD 土</textPath>
  </text>
  <text font-family="Times New Roman, serif" font-size="20" font-weight="bold" fill="black" text-anchor="middle">
    <textPath href="#metalPath" startOffset="50%">METAL 金</textPath>
  </text>
  <text font-family="Times New Roman, serif" font-size="20" font-weight="bold" fill="black" text-anchor="middle">
    <textPath href="#vandPath" startOffset="50%">VAND 水</textPath>
  </text>
  <text font-family="Times New Roman, serif" font-size="20" font-weight="bold" fill="black" text-anchor="middle">
    <textPath href="#træPath" startOffset="50%">TRÆ 木</textPath>
  </text>
  
  <!-- Inner explanatory texts -->
  <text font-family="Times New Roman, serif" font-size="12" font-style="italic" fill="black" text-anchor="middle">
    <textPath href="#innerText1" startOffset="50%">Vand kontrollerer Ild (slukker ilden)</textPath>
  </text>
  <text font-family="Times New Roman, serif" font-size="12" font-style="italic" fill="black" text-anchor="middle">
    <textPath href="#innerText2" startOffset="50%">Ild kontrollerer Metal (smelter metal)</textPath>
  </text>
  <text font-family="Times New Roman, serif" font-size="12" font-style="italic" fill="black" text-anchor="middle">
    <textPath href="#innerText3" startOffset="50%">Metal kontrollerer Træ (øksen fælder træet)</textPath>
  </text>
  <text font-family="Times New Roman, serif" font-size="12" font-style="italic" fill="black" text-anchor="middle">
    <textPath href="#innerText4" startOffset="50%">Træ kontrollerer Jord (rødder binder jorden)</textPath>
  </text>
  <text font-family="Times New Roman, serif" font-size="12" font-style="italic" fill="black" text-anchor="middle">
    <textPath href="#innerText5" startOffset="50%">Jord kontrollerer Vand (dæmninger holder vand)</textPath>
  </text>
  
</svg>
